<svg width="149" height="106" viewBox="0 0 149 106" fill="none" xmlns="http://www.w3.org/2000/svg">
<path d="M57.5938 24.8213C55.4818 30.0747 56.2192 34.7387 59.8032 38.8147C61.6192 40.8773 63.6325 42.4 65.8432 43.3813C62.2578 39.012 59.8032 34.6173 58.4778 30.1973C57.8392 27.9387 57.5445 26.1467 57.5938 24.8213ZM68.2725 48.1693C63.7058 48.1693 59.8272 46.572 56.6365 43.3813C53.4432 40.14 51.8485 36.2613 51.8485 31.744C51.8485 25.7053 57.3232 15.124 68.2725 -3.87716e-06C79.2218 15.124 84.6978 25.7053 84.6978 31.744C84.6978 36.2613 83.0765 40.14 79.8365 43.3813C76.6445 46.572 72.7898 48.1693 68.2725 48.1693V48.1693ZM129.331 83.448C132.178 87.376 135.297 91.132 138.685 94.7173C143.594 99.9707 146.909 103.58 148.627 105.544L111.066 105.619C105.271 95.6493 96.4325 90.6907 84.5498 90.7387C70.6045 90.8387 63.9765 90.8627 64.6645 90.8133C58.3778 91.108 52.9045 89.9547 48.2392 87.3507C46.9619 86.616 44.3845 85.8053 40.5058 84.9213C38.1005 84.3813 34.8832 83.572 30.8578 82.4907C26.1925 81.2147 23.0019 80.3547 21.2832 79.912C17.2059 78.8813 11.2165 76.82 3.31252 73.7267C3.55785 73.824 2.99119 73.7013 1.61785 73.3573C0.979187 73.1613 0.56185 72.7933 0.36585 72.2533C-0.223484 70.732 -0.100816 69.4787 0.733851 68.4973C2.35385 66.532 4.41652 65.6253 6.92052 65.772C7.21518 65.8213 7.43652 65.796 7.58319 65.6973C9.69385 64.5187 11.4379 64.004 12.8139 64.1507C13.0085 64.2 13.7219 64.372 14.9485 64.6667C16.0285 64.912 17.0845 65.084 18.1165 65.1827L33.0672 67.0973C33.3125 67.0973 37.4378 67.76 45.4405 69.0853C52.4618 70.216 56.2192 70.3387 56.7099 69.4547C53.9112 69.4547 50.9645 68.62 47.8712 66.9507C44.9738 65.3293 43.7712 64.176 44.2618 63.488C45.7832 61.524 47.9192 60.5427 50.6698 60.5427C58.3298 60.5907 64.3698 61.2787 68.7885 62.6053C73.3058 63.9787 77.8965 63.7347 82.5618 61.868C91.6952 58.1853 99.3792 58.3827 105.615 62.4573C116.173 69.332 124.077 76.3293 129.331 83.448" fill="#231F20"/>
</svg>
