<svg width="85" height="94" viewBox="0 0 85 94" fill="none" xmlns="http://www.w3.org/2000/svg">
<path d="M63.6733 11.248C69.972 14.6293 74.9747 19.396 78.6853 25.552C82.3507 31.7066 84.1853 38.3826 84.1853 45.5773C84.1853 55.9373 80.6267 64.8653 73.508 72.364C66.3907 79.82 57.7413 83.8293 47.5613 84.392V92.5199L47.3667 92.7146C47.0213 93.0613 46.5893 93.2346 46.072 93.2346C45.5547 93.2346 45.1227 93.0613 44.7787 92.7146L32.3547 80.2306C32.008 79.8853 31.8373 79.4506 31.8373 78.932C31.8373 78.4106 32.008 77.9773 32.3547 77.6306L44.7787 65.148C45.1227 64.8 45.5547 64.6266 46.072 64.6266C46.5893 64.6266 47.0213 64.8 47.3667 65.148L47.5613 65.3426V74.5093C55.0667 73.9906 61.408 70.9546 66.5853 65.4066C71.804 59.816 74.4147 53.2066 74.4147 45.5773C74.4147 40.2026 73.0333 35.2186 70.2733 30.6226C67.512 26.0293 63.78 22.4746 59.0787 19.96C57.8707 19.3106 57.0733 18.3346 56.684 17.0346C56.296 15.7346 56.4027 14.4773 57.008 13.264C57.6547 12.0933 58.6253 11.3133 59.92 10.924C61.2147 10.4906 62.4653 10.5986 63.6733 11.248ZM25.1067 73.2746C26.3133 73.9253 27.1133 74.9 27.5013 76.2C27.8893 77.5 27.7827 78.7573 27.1773 79.9706C26.5307 81.1413 25.56 81.9213 24.2653 82.312C22.972 82.7453 21.72 82.6373 20.5133 81.9866C14.2133 78.6066 9.21067 73.8373 5.50133 67.6826C1.83467 61.528 0 54.8533 0 47.6586C0 37.2986 3.56 28.3693 10.6773 20.8706C17.752 13.416 26.4013 9.40529 36.6253 8.84262V0.715958L36.8187 0.519954C37.164 0.173287 37.596 -4.53054e-05 38.1133 -4.53054e-05C38.6307 -4.53054e-05 39.0613 0.173287 39.408 0.519954L51.832 13.0026C52.176 13.3506 52.3493 13.784 52.3493 14.304C52.3493 14.8253 52.176 15.2573 51.832 15.6053L39.408 28.088C39.0613 28.4346 38.6307 28.608 38.1133 28.608C37.596 28.608 37.164 28.4346 36.8187 28.088L36.6253 27.892V18.7253C29.1187 19.2453 22.7773 22.2786 17.6013 27.828C12.3813 33.4186 9.772 40.0293 9.772 47.6586C9.772 53.0333 11.152 58.0173 13.9133 62.6106C16.6733 67.2066 20.4053 70.7613 25.1067 73.2746Z" fill="#231F20"/>
</svg>
