<svg width="83" height="91" viewBox="0 0 83 91" fill="none" xmlns="http://www.w3.org/2000/svg">
<path d="M82.256 56.508C82.9747 59.8067 83.1213 63.02 82.7 66.148C82.5307 67.756 82.1707 69.468 81.6213 71.2853C81.2413 72.5533 80.544 74.224 79.5293 76.296C78.6413 77.944 77.648 79.488 76.548 80.9253C75.1107 82.6587 73.8213 83.9907 72.68 84.9213C70.8613 86.4013 69.4027 87.416 68.304 87.9653C66.528 88.8947 65.0053 89.572 63.7373 89.9947C62.2147 90.4173 60.7773 90.7133 59.424 90.8827C58.7907 90.968 57.5853 90.968 55.8093 90.8827C55.556 90.8827 54.7733 90.756 53.4627 90.5013C53.0827 90.46 52.7867 90.396 52.5747 90.312C52.5747 90.1 52.596 89.7827 52.6387 89.3613C52.68 89.2333 52.7013 88.8947 52.7013 88.3453C52.744 87.8387 52.8067 87.416 52.892 87.0773C52.9773 86.316 53.0827 85.2587 53.2093 83.9067C53.336 82.7227 53.484 81.496 53.6533 80.228C53.992 78.0293 54.2013 76.76 54.288 76.4227C54.7093 74.3933 55.0067 73.1027 55.1747 72.5533C55.8507 69.9747 56.8453 67.48 58.156 65.0707C58.4093 64.5213 59.1293 63.3147 60.312 61.4547C60.8613 60.6093 61.7293 59.488 62.9133 58.0933C64.0547 56.7827 65.0267 55.748 65.8307 54.9853C67.1827 53.7173 68.24 52.788 69.0013 52.196C69.9307 51.4773 70.988 50.716 72.172 49.9133C72.6373 49.5747 73.292 49.1507 74.1387 48.6453L76.4853 48.2013C76.4853 48.4533 76.4213 48.8973 76.2947 49.532C75.66 53.5067 74.772 57.2693 73.6307 60.82C73.0813 62.64 72.3627 64.5627 71.4747 66.592C71.3053 66.888 71.0933 67.312 70.84 67.8613C70.544 68.452 70.3333 68.8747 70.2067 69.1293C69.5293 70.3133 69.0867 71.052 68.8747 71.3493C68.7053 71.6453 68.304 72.2373 67.6693 73.1253L66.5907 74.3933C66.1693 74.8587 65.8507 75.2173 65.64 75.472C65.8933 75.2173 66.232 74.8787 66.6547 74.456C67.4573 73.6107 67.86 73.208 67.86 73.252C68.028 73.04 68.4933 72.4893 69.2547 71.6027C69.1693 71.7293 69.656 71.0107 70.7133 69.4467C71.3893 68.3893 71.896 67.5653 72.236 66.9733C73.292 64.9427 74.18 63.04 74.8987 61.264C76.336 57.756 77.5413 53.992 78.5147 49.976C78.6413 49.5947 78.7893 49.0253 78.9587 48.2627C79.2533 48.6867 79.4653 49.0453 79.592 49.3413C80.312 50.6947 80.7973 51.752 81.0507 52.5133C81.516 53.6973 81.9173 55.0293 82.256 56.508ZM52.1947 39.7027C52.4493 39.5333 52.66 39.4067 52.8293 39.3213L56.6973 37.1013L42.2373 11.924L34.2467 23.72L24.86 16.9973L33.9933 5.01066L34.944 4.12266C36.1707 3.74266 39.6373 2.91866 45.3453 1.648C49.0653 0.845329 51.5187 0.295995 52.7013 -4.75168e-06C53.0827 0.677329 53.78 1.86133 54.7947 3.552C55.8507 5.412 56.6547 6.84933 57.2053 7.86533C60.3333 13.3613 63.0813 18.16 65.4493 22.26L69.3813 29.1733L74.2013 26.4467C72.384 33.6347 70.8613 39.5533 69.636 44.204L52.1947 39.7027ZM9.38534 43.444C16.9107 40.6107 22.6187 38.4547 26.5093 36.9747L32.8507 53.908C32.556 53.7387 32.3213 53.6333 32.1533 53.5907L28.1587 51.688L26.256 55.62C25.7893 56.592 25.2187 57.7987 24.5427 59.236L15.7907 77.944L29.8707 77.7547L29.808 89.2973L14.7133 88.6627L13.6347 88.4093C12.5773 87.6053 9.91467 85.2387 5.644 81.3067C2.89467 78.812 1.01333 77.12 0 76.232C3.00133 69.8893 6.088 63.3587 9.25867 56.636L10.908 53.02C11.5413 51.7093 12.0707 50.6093 12.4933 49.7227L14.332 45.7907L9.38534 43.444Z" fill="#231F20"/>
</svg>
