<svg width="164" height="94" viewBox="0 0 164 94" fill="none" xmlns="http://www.w3.org/2000/svg">
<path d="M138.669 71.7786C141.645 71.7786 144.169 72.84 146.24 74.9653C148.311 77.044 149.345 79.5586 149.345 82.5066C149.345 85.4546 148.311 87.9893 146.24 90.1133C144.169 92.1946 141.645 93.2346 138.669 93.2346C135.735 93.2346 133.233 92.1946 131.163 90.1133C129.092 87.9893 128.057 85.4546 128.057 82.5066C128.057 79.5586 129.092 77.044 131.163 74.9653C133.233 72.84 135.735 71.7786 138.669 71.7786ZM134.592 55.6546C135.585 52.4466 136.188 50.388 136.404 49.4773L136.211 48.5026L132.587 39.856L126.116 42.8466L129.999 50.908H112.075V47.6573L104.309 55.6546C104.999 56.348 106.251 57.584 108.063 59.3613C110.392 61.6146 111.857 63.024 112.463 63.5853V60.2053H133.233C133.449 59.3813 133.903 57.864 134.592 55.6546V55.6546ZM103.727 23.0813L108.644 15.7346L117.575 31.4026L115.18 32.768C115.093 32.8106 114.964 32.8986 114.792 33.0293L125.533 35.824C125.792 34.8706 126.245 33.1586 126.892 30.688C127.625 27.7413 128.121 25.768 128.381 24.7706L125.404 26.4626L122.945 22.1706C123.247 22.6906 121.564 19.7213 117.897 13.2626C116.301 10.4893 115.375 8.84263 115.115 8.32129C114.339 8.53863 112.828 8.90796 110.587 9.42663C107.351 10.0773 105.193 10.576 104.115 10.9226L103.532 11.4426L97.9027 18.9186L103.727 23.0813ZM100.556 35.6293C100.643 35.672 100.772 35.7373 100.944 35.824L97.0613 25.292C94.9907 26.072 91.4533 27.416 86.4493 29.3226L89.4907 30.752L88.392 33.224C88.132 33.7866 87.808 34.4586 87.42 35.24L86.3853 37.5146C85.8667 38.5973 84.8747 40.7 83.408 43.8213C82.1147 46.5946 81.208 48.5453 80.6907 49.6733C81.1653 50.0626 82.308 51.1026 84.12 52.7933C86.7507 55.264 88.4133 56.7386 89.1027 57.2146L89.7507 57.4106L99.068 57.7346L99.1333 50.584L90.3973 50.7133L95.8333 39.14C96.2627 38.2293 96.6307 37.472 96.932 36.864L98.0973 34.3933L100.556 35.6293ZM163.388 -3.51329e-05V77.3693H151.805C150.812 74.7266 149.173 72.6013 146.888 70.9986C144.557 69.3066 141.969 68.4626 139.123 68.4626C136.232 68.4626 133.621 69.3066 131.292 70.9986C129.005 72.6013 127.388 74.7266 126.44 77.3693H53.708V-3.51329e-05H163.388ZM37.336 71.7786C40.2693 71.7786 42.772 72.84 44.8427 74.9653C46.9547 77.044 48.0133 79.5586 48.0133 82.5066C48.0133 85.4546 46.9547 87.9893 44.8427 90.1133C42.772 92.1946 40.2693 93.2346 37.336 93.2346C34.4013 93.2346 31.8787 92.1946 29.7653 90.1133C27.6947 87.9893 26.66 85.4546 26.66 82.5066C26.66 79.5586 27.6947 77.044 29.7653 74.9653C31.8787 72.84 34.4013 71.7786 37.336 71.7786ZM18.7 27.0466L9.57733 42.8466H42.1253V27.0466H18.7ZM14.688 23.2106H48.4013V68.1386H25.0413V67.6826L19.5413 65.732H1.74666V44.472L14.688 23.2106ZM18.5067 67.228L25.0413 69.6333V75.94V76.0053H0V67.228H18.5067Z" fill="#231F20"/>
</svg>
